<svg xmlns="http://www.w3.org/2000/svg" viewBox="0 0 794 761" role="img" aria-label="Dog Walker Assistant paw logo">
  <g transform="translate(0,761) scale(0.1,-0.1)" fill="#F5A800">
    <path d="M3164 6426 c-329 -93 -721 -517 -857 -928 -59 -177 -71 -331 -41 -521 63 -395 314 -707 622 -772 91 -19 147 -19 237 0 289 60 529 345 616 730 21 90 17 610 -6 775 -51 379 -159 616 -318 697 -63 31 -177 40 -253 19z"/>
    <path d="M4583 6431 c-193 -50 -325 -303 -377 -721 -21 -171 -30 -528 -18 -671 24 -263 156 -533 337 -687 109 -94 279 -162 400 -161 437 1 790 479 762 1031 -9 180 -68 358 -182 553 -167 284 -437 540 -662 627 -83 32 -198 45 -260 29z"/>
    <path d="M1592 4806 c-174 -83 -326 -333 -394 -649 -32 -151 -32 -424 1 -552 46 -178 132 -333 260 -468 109 -114 234 -196 361 -235 217 -66 414 -20 565 132 81 81 122 154 161 281 25 81 28 105 28 245 0 127 -4 171 -22 243 -55 223 -236 561 -411 771 -81 97 -175 177 -261 219 -55 27 -77 32 -150 35 -74 2 -92 -1 -138 -22z"/>
    <path d="M6089 4807 c-143 -60 -269 -184 -419 -410 -91 -137 -217 -386 -254 -502 -150 -472 26 -923 395 -1010 82 -19 149 -19 240 0 148 31 261 91 382 205 178 167 289 368 322 590 69 452 -120 979 -405 1126 -23 12 -64 19 -120 21 -72 3 -94 0 -141 -20z"/>
    <path d="M3795 4101 c-135 -22 -286 -83 -412 -167 -135 -90 -213 -176 -365 -405 -179 -270 -235 -332 -605 -676 -166 -155 -248 -265 -323 -440 -59 -137 -73 -218 -68 -386 5 -164 28 -250 100 -371 52 -88 181 -223 267 -280 202 -134 438 -200 711 -199 173 0 317 21 485 70 217 64 230 66 390 65 158 0 167 -2 380 -65 197 -58 294 -70 522 -65 182 5 208 8 318 36 411 108 689 395 725 751 10 95 0 230 -25 326 -19 71 -96 234 -156 325 -55 85 -236 264 -374 370 -202 156 -294 263 -430 505 -96 170 -139 230 -221 311 -127 126 -282 216 -463 270 -73 22 -110 26 -246 29 -88 2 -182 0 -210 -4z"/>
  </g>
</svg>
